<svg xmlns="http://www.w3.org/2000/svg" viewBox="0 0 512 512">
  <rect width="512" height="512" rx="100" fill="#007aff" />
  <path d="M400 160H112c-26.5 0-48 21.5-48 48v160c0 26.5 21.5 48 48 48h288c26.5 0 48-21.5 48-48V208c0-26.5-21.5-48-48-48zm-288 32h288c8.8 0 16 7.2 16 16v32H96v-32c0-8.8 7.2-16 16-16zm288 192H112c-8.8 0-16-7.2-16-16V272h320v96c0 8.8-7.2 16-16 16z" fill="#ffffff" />
  <circle cx="160" cy="336" r="24" fill="#ffffff" />
  <circle cx="352" cy="336" r="24" fill="#ffffff" />
  <rect x="200" y="200" width="112" height="12" rx="6" fill="#007aff" opacity="0.3" />
</svg>
